<?xml version="1.0" encoding="UTF-8" standalone="no" ?>
<!DOCTYPE svg PUBLIC "-//W3C//DTD SVG 1.1//EN" "http://www.w3.org/Graphics/SVG/1.1/DTD/svg11.dtd">
<svg xmlns="http://www.w3.org/2000/svg" xmlns:xlink="http://www.w3.org/1999/xlink" version="1.1" width="128" height="128" viewBox="0 0 128 128" xml:space="preserve">
<desc>Created with Fabric.js 5.3.0</desc>
<defs>
</defs>
<g transform="matrix(0.9743700648 0.2249510543 -0.2249510543 0.9743700648 65.5942569784 36.4603412731)" id="tubbukNEH08QBmy3fa1ah"  >
<g style=""   >
		<g transform="matrix(1.0905604978 0 0 -0.7660994771 -7.191e-7 0)" id="Zbs1KQRDP4NYJh6uMDh-o"  >
<path style="stroke: rgb(255,0,0); stroke-width: 6; stroke-dasharray: none; stroke-linecap: butt; stroke-dashoffset: 0; stroke-linejoin: miter; stroke-miterlimit: 4; fill: rgb(255,255,255); fill-opacity: 0; fill-rule: nonzero; opacity: 1;" vector-effect="non-scaling-stroke"  transform=" translate(0, 0)" d="M -36.65934 -5.8022 L -36.65934 5.8022 L 36.65934 5.8022 L 36.65934 -5.8022" stroke-linecap="round" />
</g>
		<g transform="matrix(1.0905604978 0 0 -0.7660994771 -3e-10 -2.9999983165)" id="2TsOg25AsET8kjz92bEC0"  >
<path style="stroke: rgb(255,0,0); stroke-width: 6; stroke-dasharray: none; stroke-linecap: butt; stroke-dashoffset: 0; stroke-linejoin: miter; stroke-miterlimit: 4; fill: rgb(255,255,255); fill-opacity: 0; fill-rule: nonzero; opacity: 0.25;" vector-effect="non-scaling-stroke"  transform=" translate(0, 0)" d="M -36.65934 -5.8022 L -36.65934 5.8022 L 36.65934 5.8022 L 36.65934 -5.8022" stroke-linecap="round" />
</g>
		<g transform="matrix(1.0905604978 0 0 -0.7660994771 7.188e-7 2.9999983165)" id="FciEZWefu7UGyfnbrXmR6"  >
<path style="stroke: rgb(255,0,0); stroke-width: 6; stroke-dasharray: none; stroke-linecap: butt; stroke-dashoffset: 0; stroke-linejoin: miter; stroke-miterlimit: 4; fill: rgb(255,255,255); fill-opacity: 0; fill-rule: nonzero; opacity: 0.25;" vector-effect="non-scaling-stroke"  transform=" translate(0, 0)" d="M -36.65934 -5.8022 L -36.65934 5.8022 L 36.65934 5.8022 L 36.65934 -5.8022" stroke-linecap="round" />
</g>
</g>
</g>
<g transform="matrix(1 0 0 1 64.2518903892 98.3101760795)" id="4kqNL_AA2rwnO1GiLb8By"  >
<g style=""   >
		<g transform="matrix(1.0905604978 0 0 0.7660994771 0 8.419e-7)" id="K6voyFmDswYF_inFRXbY0"  >
<path style="stroke: rgb(255,0,0); stroke-width: 6; stroke-dasharray: none; stroke-linecap: butt; stroke-dashoffset: 0; stroke-linejoin: miter; stroke-miterlimit: 4; fill: rgb(255,255,255); fill-opacity: 0; fill-rule: nonzero; opacity: 1;" vector-effect="non-scaling-stroke"  transform=" translate(0, 0)" d="M -36.65934 -5.8022 L -36.65934 5.8022 L 36.65934 5.8022 L 36.65934 -5.8022" stroke-linecap="round" />
</g>
		<g transform="matrix(1.0905604978 0 0 0.7660994771 0 -2.9999991581)" id="uAfMBqlgR-IDLJjeWiDxP"  >
<path style="stroke: rgb(255,0,0); stroke-width: 6; stroke-dasharray: none; stroke-linecap: butt; stroke-dashoffset: 0; stroke-linejoin: miter; stroke-miterlimit: 4; fill: rgb(255,255,255); fill-opacity: 0; fill-rule: nonzero; opacity: 0.25;" vector-effect="non-scaling-stroke"  transform=" translate(0, 0)" d="M -36.65934 -5.8022 L -36.65934 5.8022 L 36.65934 5.8022 L 36.65934 -5.8022" stroke-linecap="round" />
</g>
		<g transform="matrix(1.0905604978 0 0 0.7660994771 0 3.0000008419)" id="73Vza2dDV3FZH5cjh5yV-"  >
<path style="stroke: rgb(255,0,0); stroke-width: 6; stroke-dasharray: none; stroke-linecap: butt; stroke-dashoffset: 0; stroke-linejoin: miter; stroke-miterlimit: 4; fill: rgb(255,255,255); fill-opacity: 0; fill-rule: nonzero; opacity: 0.25;" vector-effect="non-scaling-stroke"  transform=" translate(0, 0)" d="M -36.65934 -5.8022 L -36.65934 5.8022 L 36.65934 5.8022 L 36.65934 -5.8022" stroke-linecap="round" />
</g>
</g>
</g>
<g transform="matrix(1 0 0 1 65.5942569784 64.6269998139)" id="0VQwPpN0DEglrkmHL8wS6"  >
<g style=""   >
		<g transform="matrix(0.7859904574 0 0 0.7859904574 0 0.5)" id="28XHLXTDA7Ku_q4r5uzly"  >
<path style="stroke: rgb(255,0,0); stroke-width: 0; stroke-dasharray: none; stroke-linecap: butt; stroke-dashoffset: 0; stroke-linejoin: miter; stroke-miterlimit: 4; fill: rgb(255,0,0); fill-rule: nonzero; opacity: 1;"  transform=" translate(0, 0)" d="M -8.79121 -8.79121 L 8.79121 -8.79121 L 8.79121 8.79121 L -8.79121 8.79121 z" stroke-linecap="round" />
</g>
		<g transform="matrix(0.7859904574 0 0 0.7859904574 0 -3.5)" id="446x2crK2kL_qN-jPCsbn"  >
<path style="stroke: rgb(255,0,0); stroke-width: 0; stroke-dasharray: none; stroke-linecap: butt; stroke-dashoffset: 0; stroke-linejoin: miter; stroke-miterlimit: 4; fill: rgb(255,0,0); fill-rule: nonzero; opacity: 0.25;"  transform=" translate(0, 0)" d="M -8.79121 -8.79121 L 8.79121 -8.79121 L 8.79121 8.79121 L -8.79121 8.79121 z" stroke-linecap="round" />
</g>
		<g transform="matrix(0.7859904574 0 0 0.7859904574 0 3.5)" id="1kSeJOyMWF2gy7p-ztTTb"  >
<path style="stroke: rgb(255,0,0); stroke-width: 0; stroke-dasharray: none; stroke-linecap: butt; stroke-dashoffset: 0; stroke-linejoin: miter; stroke-miterlimit: 4; fill: rgb(255,0,0); fill-rule: nonzero; opacity: 0.25;"  transform=" translate(0, 0)" d="M -8.79121 -8.79121 L 8.79121 -8.79121 L 8.79121 8.79121 L -8.79121 8.79121 z" stroke-linecap="round" />
</g>
</g>
</g>
</svg>