<?xml version="1.0" encoding="UTF-8" standalone="no" ?>
<!DOCTYPE svg PUBLIC "-//W3C//DTD SVG 1.1//EN" "http://www.w3.org/Graphics/SVG/1.1/DTD/svg11.dtd">
<svg xmlns="http://www.w3.org/2000/svg" xmlns:xlink="http://www.w3.org/1999/xlink" version="1.1" width="128" height="128" viewBox="0 0 128 128" xml:space="preserve">
<desc>Created with Fabric.js 5.3.0</desc>
<defs>
</defs>
<g transform="matrix(1 0 0 1 57.0908263396 56.3059171007)" id="6M8-5UA8gCppBhrF29_1C"  >
<g style=""   >
		<g transform="matrix(1 0 0 1 5.859375 9.6855856951)" id="zGpFHFnVevOf1VAd1njfY"  >
<path style="stroke: rgb(255,0,0); stroke-width: 5; stroke-dasharray: none; stroke-linecap: butt; stroke-dashoffset: 0; stroke-linejoin: miter; stroke-miterlimit: 4; fill: rgb(255,255,255); fill-opacity: 0; fill-rule: nonzero; opacity: 1;"  transform=" translate(0, 0)" d="M 37.5 2.97396 L -27.730270000000004 2.02343 C -29.933460000000004 1.9913299999999998 -32.066390000000006 1.2433099999999997 -33.80704 -0.10769000000000029 L -37.5 -2.9739600000000004" stroke-linecap="round" />
</g>
		<g transform="matrix(1 0 0 1 0 -3.4739583333)" id="_Nmsvq0CIs7UoTHRpMDxd"  >
<path style="stroke: rgb(255,0,0); stroke-width: 5; stroke-dasharray: none; stroke-linecap: butt; stroke-dashoffset: 0; stroke-linejoin: miter; stroke-miterlimit: 4; fill: rgb(255,255,255); fill-opacity: 0; fill-rule: nonzero; opacity: 1;"  transform=" translate(0, 0)" d="M -44.14063 9.18559 L -24.910960000000003 -5.49512 C -21.68042 -7.96145 -17.709860000000003 -9.26106 -13.646240000000002 -9.18219 L 28.184029999999996 -8.37032 L 28.184029999999996 -8.37032 C 32.878609999999995 -8.2792 37.516009999999994 -7.32194 41.862939999999995 -5.546679999999999 L 44.140629999999994 -4.61649" stroke-linecap="round" />
</g>
		<g transform="matrix(1 0 0 1 33.4635416667 -2.7935809715)" id="efHYckoc8YgUw36jcFgmt"  >
<path style="stroke: rgb(255,0,0); stroke-width: 5; stroke-dasharray: none; stroke-linecap: butt; stroke-dashoffset: 0; stroke-linejoin: miter; stroke-miterlimit: 4; fill: rgb(255,255,255); fill-opacity: 0; fill-rule: nonzero; opacity: 1;"  transform=" translate(0, 0)" d="M 5.20833 8.98438 L -5.20834 -8.98437" stroke-linecap="round" />
</g>
		<g transform="matrix(1.355 0 0 1.355 4.4921875 0.1204091178)" id="u0kMRIop80du-A_ksNMi_"  >
<path style="stroke: rgb(255,0,0); stroke-width: 0; stroke-dasharray: none; stroke-linecap: butt; stroke-dashoffset: 0; stroke-linejoin: miter; stroke-miterlimit: 4; fill: rgb(255,0,0); fill-rule: nonzero; opacity: 1;"  transform=" translate(0, 0)" d="M -9.89502 -8.9298 C -8.666820000000001 -10.36458 -4.604570000000001 -9.09062 0 -8.9298 C 4.35092 -8.77784 9.25489 -9.823170000000001 10.40956 -8.289060000000001 C 12.048860000000001 -6.111080000000001 13.02083 -3.402800000000001 13.02083 -0.4688900000000009 C 13.02083 3.003029999999999 11.65969 6.158979999999999 9.44228 8.49409 C 7.06926 10.99307 3.7155700000000005 8.49409 -0.000009999999999621423 8.49409 C -3.9257499999999994 8.49409 -7.447509999999999 10.81173 -9.83545 8.06112 C -11.8195 5.775740000000001 -13.02084 2.7928700000000006 -13.02084 -0.46889000000000003 C -13.02084 -3.69787 -11.84353 -6.65355 -9.895019999999999 -8.9298 z" stroke-linecap="round" />
</g>
</g>
</g>
</svg>