<?xml version="1.0" encoding="UTF-8" standalone="no" ?>
<!DOCTYPE svg PUBLIC "-//W3C//DTD SVG 1.1//EN" "http://www.w3.org/Graphics/SVG/1.1/DTD/svg11.dtd">
<svg xmlns="http://www.w3.org/2000/svg" xmlns:xlink="http://www.w3.org/1999/xlink" version="1.1" width="128" height="128" viewBox="0 0 128 128" xml:space="preserve">
<desc>Created with Fabric.js 5.3.0</desc>
<defs>
</defs>
<g transform="matrix(1 0 0 1 6.3057601913 44.3194652085)" id="V9S7bNaOt2ZTuQ2DQ13Wo"  >
<path style="stroke: rgb(255,0,0); stroke-width: 5; stroke-dasharray: none; stroke-linecap: butt; stroke-dashoffset: 0; stroke-linejoin: miter; stroke-miterlimit: 4; fill: rgb(255,255,255); fill-opacity: 0; fill-rule: nonzero; opacity: 1;"  transform=" translate(0, 0)" d="M -1.11728 -6.32383 L -1.20205 -5.69269 C -1.63165 -2.49423 -1.15555 0.7606000000000002 0.17215999999999987 3.7020100000000005 L 1.3556199999999998 6.323840000000001" stroke-linecap="round" />
</g>
<g transform="matrix(1 0 0 1 52.0884840728 34.3300784489)" id="GXZcRGXMIFJKfWdpmlsdn"  >
<path style="stroke: rgb(255,0,0); stroke-width: 5; stroke-dasharray: none; stroke-linecap: butt; stroke-dashoffset: 0; stroke-linejoin: miter; stroke-miterlimit: 4; fill: rgb(255,255,255); fill-opacity: 0; fill-rule: nonzero; opacity: 1;"  transform=" translate(0, 0)" d="M -45.78272 8.79461 C -45.78272 8.79461 -4.912459999999996 10.20809 17.88613 5.894550000000001 C 40.68473 1.581010000000001 45.78272 -9.01615 45.78272 -9.01615" stroke-linecap="round" />
</g>
<g transform="matrix(1 0 0 1 114.3838388319 30.664640519)" id="Eq0L7E8H3ftgk3Vwd_mWE"  >
<path style="stroke: rgb(255,0,0); stroke-width: 5; stroke-dasharray: none; stroke-linecap: butt; stroke-dashoffset: 0; stroke-linejoin: miter; stroke-miterlimit: 4; fill: rgb(255,255,255); fill-opacity: 0; fill-rule: nonzero; opacity: 1;"  transform=" translate(0, 0)" d="M -9.1698 24.86085 C -9.1698 24.86085 -6.59395 8.92643 -2.0090500000000002 -3.5040000000000013 C 2.57585 -15.93443 9.1698 -24.860860000000002 9.1698 -24.860860000000002" stroke-linecap="round" />
</g>
</svg>