<?xml version="1.0" encoding="UTF-8" standalone="no" ?>
<!DOCTYPE svg PUBLIC "-//W3C//DTD SVG 1.1//EN" "http://www.w3.org/Graphics/SVG/1.1/DTD/svg11.dtd">
<svg xmlns="http://www.w3.org/2000/svg" xmlns:xlink="http://www.w3.org/1999/xlink" version="1.1" width="256" height="256" viewBox="0 0 256 256" xml:space="preserve">
<desc>Created with Fabric.js 5.3.0</desc>
<defs>
</defs>
<g transform="matrix(2.2936777513 0 0 2.2936777513 63.1402732283 127.999994653)" id="P8Nv550PA7BQcU6o0CyaM"  >
<path style="stroke: rgb(255,0,0); stroke-width: 10; stroke-dasharray: none; stroke-linecap: butt; stroke-dashoffset: 0; stroke-linejoin: miter; stroke-miterlimit: 4; fill: none; fill-rule: nonzero; opacity: 1;" vector-effect="non-scaling-stroke"  transform=" translate(0, 0)" d="M 0 -21.08731 C 11.6402 -21.08731 21.08731 -11.640189999999999 21.08731 0 C 21.08731 11.6402 11.640189999999999 21.08731 0 21.08731 C -11.6402 21.08731 -21.08731 11.640189999999999 -21.08731 0 C -21.08731 -11.6402 -11.640189999999999 -21.08731 0 -21.08731 z" stroke-linecap="round" />
</g>
<g transform="matrix(2.2936777513 0 0 2.2936777513 192.8597267717 128.000005347)" id="GVo4uws-C5BLgm2kXIye9"  >
<path style="stroke: rgb(255,0,0); stroke-width: 10; stroke-dasharray: none; stroke-linecap: butt; stroke-dashoffset: 0; stroke-linejoin: miter; stroke-miterlimit: 4; fill: none; fill-rule: nonzero; opacity: 1;" vector-effect="non-scaling-stroke"  transform=" translate(0, 0)" d="M 0 -21.08731 C 11.6402 -21.08731 21.08731 -11.640189999999999 21.08731 0 C 21.08731 11.6402 11.640189999999999 21.08731 0 21.08731 C -11.6402 21.08731 -21.08731 11.640189999999999 -21.08731 0 C -21.08731 -11.6402 -11.640189999999999 -21.08731 0 -21.08731 z" stroke-linecap="round" />
</g>
<g transform="matrix(0.892275098 0 0 0.892275098 127.999994653 118.4039949167)" id="4f7xoPHpKRrdFlOGKyJPn"  >
<path style="stroke: rgb(255,0,0); stroke-width: 10; stroke-dasharray: none; stroke-linecap: butt; stroke-dashoffset: 0; stroke-linejoin: miter; stroke-miterlimit: 4; fill: rgb(255,255,255); fill-opacity: 0; fill-rule: nonzero; opacity: 1;" vector-effect="non-scaling-stroke"  transform=" translate(0, 0)" d="M -19.18946 0 L 19.189449999999997 0" stroke-linecap="round" />
</g>
</svg>